<svg width="177" height="207" viewBox="0 0 177 207" fill="none" xmlns="http://www.w3.org/2000/svg">
<g opacity="0.7">
<path d="M4.21564 45.364C1.50361 37.6548 -0.291662 27.6918 2.88868 19.0498C4.716 14.076 8.09534 10.1517 11.3584 7.21008C14.9823 3.93578 19.1413 1.72984 23.3015 2.08333C26.948 2.3901 30.2688 4.46453 33.6312 6.07908C37.8626 8.10538 42.0704 10.188 46.2298 12.4561C54.5219 16.9792 62.6464 22.0026 70.7326 27.1485C79.0051 32.4191 87.2007 37.8951 95.4094 43.3379C103.312 48.5808 111.219 53.8601 119.653 57.4069C123.71 59.1167 127.821 60.6609 131.756 62.8311C135.477 64.8801 139.306 66.7102 142.869 69.2363C144.687 70.5223 146.562 72.0229 148.007 74.0649C149.331 75.9357 150.126 78.441 150.63 81.0307C151.654 86.3025 151.639 91.9835 151.865 97.488C152.086 102.86 152.579 108.066 153.921 112.995C155.262 117.924 156.981 122.071 158.878 126.26C162.903 135.123 167.711 143.197 171.489 152.312C173.169 156.367 174.707 160.663 175.158 165.492C175.558 169.765 175.098 174.219 173.937 178.359C171.498 187.04 166.291 193.904 160.749 198.595C157.362 201.464 153.723 204.031 149.877 204.774C145.811 205.55 141.834 204.015 138.101 202.334C130.244 198.79 123.228 192.431 117.767 183.802C114.988 179.409 112.651 174.436 110.835 169.05C108.905 163.32 107.664 157.084 106.414 150.934C105.222 145.094 104.061 139.225 102.481 133.609C100.889 127.953 98.8466 122.694 96.3186 117.87C91.4989 108.672 85.4495 100.846 78.6119 94.8164C71.9321 88.9317 64.5683 85.2334 56.8443 82.625C49.1202 80.0166 40.8027 78.0795 32.8795 75.2837C24.9563 72.4879 17.0886 68.7759 11.3891 60.2899C8.46583 55.9349 6.15431 50.7762 4.21956 45.3772C4.09673 45.0406 3.68657 44.084 3.37328 44.1122C3.05998 44.1404 3.13863 44.4442 3.27517 44.827C7.09879 55.4896 12.3937 64.993 19.9121 70.5291C23.542 73.2003 27.4877 74.9802 31.4706 76.4788C35.4535 77.9774 39.3725 79.2416 43.3702 80.4028C51.5868 82.7935 59.9315 84.7834 67.7765 88.8064C75.7913 92.9177 83.11 99.4072 89.2211 107.692C92.2853 111.845 95.1033 116.465 97.4257 121.544C99.9404 127.039 101.685 133.21 103.119 139.518C105.822 151.397 107.592 163.81 112.162 174.435C116.46 184.431 122.515 192.835 129.647 198.618C133.202 201.501 137.026 203.685 141.016 205.227C144.774 206.684 148.547 207.708 152.546 206.395C156.249 205.187 159.807 202.525 163.056 199.554C165.97 196.889 168.685 193.669 170.944 189.877C175.119 182.866 177.41 173.938 176.144 165.215C175.461 160.494 173.851 156.208 172.153 152.189C170.237 147.647 168.066 143.347 165.89 139.074C161.534 130.508 156.629 121.776 154.368 111.366C152.107 100.955 154.146 88.4477 150.774 78.4175C147.314 68.1299 138.499 65.0746 131.603 61.1918C127.583 58.9295 123.386 57.3097 119.223 55.5707C114.952 53.7795 110.844 51.6268 106.776 49.1433C98.1813 43.8911 89.7929 38.0557 81.3089 32.4788C72.9958 27.0134 64.6263 21.6674 56.1708 16.6128C51.9244 14.0707 47.6432 11.6248 43.3182 9.32122C38.9931 7.01769 34.9811 5.18856 30.82 3.08912C27.5644 1.44751 24.2255 -0.223385 20.6288 0.0250889C16.3509 0.320394 12.1161 3.16166 8.57256 6.84223C5.46926 10.0706 2.53804 13.9759 1.08865 19.1393C-0.111868 23.4184 -0.217497 28.0385 0.280778 32.3709C0.779052 36.7032 1.89691 40.9362 3.2704 44.8304C3.47717 45.4112 4.72597 46.8327 4.2148 45.3806L4.21564 45.364Z" fill="white" fill-opacity="0.1"/>
<path d="M111.124 61.1497C114.012 63.0414 117.075 64.3633 120.124 65.6953C123.201 67.0469 126.161 68.6406 129.127 70.35C132.092 72.0593 134.867 73.5516 137.345 76.0573C138.51 77.2345 139.514 78.5879 140.197 80.4061C140.88 82.2243 141.224 84.1369 141.466 86.1362C141.986 90.4618 141.905 94.9528 142.215 99.3292C142.504 103.441 143.225 107.283 144.393 110.97C146.776 118.519 150.358 125.076 153.577 131.84C155.115 135.068 156.613 138.357 157.822 141.888C158.892 145.014 159.625 148.296 159.547 151.924C159.396 158.833 156.399 165.13 152.732 169.654C150.567 172.328 148.113 174.511 145.562 176.252C142.857 178.092 139.981 179.183 137.089 178.707C133.955 178.192 130.821 176.785 127.965 175.078C125.109 173.371 122.314 171.072 119.814 168.358C114.613 162.713 110.574 155.2 108.2 146.345C105.763 137.278 104.271 127.581 101.063 119.032C97.9975 110.868 93.4402 103.87 88.3954 98.2111C83.4855 92.6967 77.9611 88.5383 71.9766 85.6754C66.0728 82.8517 59.9072 81.1206 53.8604 78.8996C47.8137 76.6785 41.0144 74.2832 35.8737 68.8428C33.2379 66.0569 31.0846 62.4382 29.3245 58.4801C27.7975 55.0364 26.4349 51.3339 25.5856 47.3673C24.1497 40.6296 24.4235 33.0523 28.4103 27.5935C30.9924 24.0606 34.0465 21.1698 37.4364 19.7982C40.2669 18.6513 42.9889 19.1914 45.6392 20.3801C51.9358 23.1917 58.1398 26.427 64.2189 29.9574C70.5944 33.6547 76.8643 37.6734 83.1238 41.7153C89.3833 45.7572 95.6918 50.3709 101.934 54.7997C104.98 56.9551 108.037 59.0872 111.122 61.1431C112.187 61.848 112.274 59.5857 111.46 59.048C104.858 54.6642 98.4009 49.8992 91.8728 45.3198C85.5128 40.8619 79.0365 36.7088 72.5247 32.6683C65.9956 28.6081 59.3867 24.7633 52.6201 21.4518C49.7937 20.0756 46.9551 18.4845 44.0423 17.4561C41.1294 16.4276 38.3044 16.6056 35.4287 18.1032C32.1739 19.7948 29.0284 22.8614 26.6356 26.5487C24.847 29.31 23.7015 32.7291 23.3519 36.3718C22.5931 44.2891 24.9152 51.865 27.5935 58.2021C29.3192 62.2961 31.3859 66.0872 33.9188 69.1845C36.4517 72.2819 39.4919 74.553 42.6393 76.2944C48.7093 79.6396 55.1743 81.6632 61.5324 83.8495C67.8904 86.0357 74.1503 88.3945 79.8353 92.6876C85.6308 97.0628 90.8303 102.972 95.0558 110.091C97.2789 113.828 99.1906 117.872 100.67 122.354C102.149 126.836 103.239 131.615 104.31 136.367C105.381 141.12 106.502 146.331 108.071 150.982C109.512 155.259 111.368 159.23 113.549 162.749C117.814 169.633 123.276 174.976 129.378 178.155C132.313 179.686 135.543 181.106 138.764 181.178C141.7 181.24 144.584 179.848 147.262 177.876C152.026 174.36 156.577 169.351 159.157 162.422C160.322 159.301 161.009 155.884 161.084 152.441C161.163 148.718 160.454 145.243 159.4 142.002C156.947 134.446 153.253 127.92 150.05 121.073C148.419 117.59 146.865 113.998 145.658 110.139C144.45 106.281 143.854 102.2 143.633 97.8728C143.412 93.5455 143.421 88.8896 142.731 84.5715C142.042 80.2535 140.568 76.8922 138.157 74.4192C135.596 71.7882 132.628 70.0888 129.696 68.3958C126.764 66.7027 123.692 65.0039 120.572 63.626C117.488 62.2711 114.38 60.9726 111.459 59.0646C110.389 58.363 110.302 60.6253 111.121 61.1596L111.124 61.1497Z" fill="white" fill-opacity="0.1"/>
<path d="M111.382 68.6513C113.318 70.1648 115.411 71.2178 117.51 72.2508C119.637 73.3036 121.678 74.4891 123.713 75.8301C125.747 77.1711 127.777 78.3798 129.486 80.3244C131.194 82.2691 131.816 84.8482 132.109 87.8887C132.421 91.1077 132.391 94.4146 132.697 97.637C132.98 100.565 133.623 103.313 134.469 105.934C136.241 111.423 138.738 116.276 140.899 121.413C142.738 125.77 144.639 130.554 143.819 136.075C143.079 141.075 140.459 145.273 137.564 148.18C135.844 149.912 133.925 151.441 131.934 152.279C129.752 153.194 127.672 152.842 125.578 152.133C121.166 150.64 117.041 147.677 113.65 143.546C111.975 141.499 110.465 139.16 109.249 136.511C107.896 133.559 106.925 130.324 106.019 127.019C104.245 120.535 102.654 113.953 99.8651 108.268C97.2464 102.926 93.9246 98.2924 90.2652 94.4375C86.6057 90.5827 82.5682 87.7187 78.2639 85.5043C74.0871 83.3521 69.7697 81.7131 65.5929 79.5609C61.2463 77.3203 56.7313 74.9186 53.6058 69.9398C52.0397 67.4487 50.8128 64.5523 49.8095 61.4992C49.0308 59.1261 48.4079 56.6198 48.1481 53.9626C47.9051 51.517 47.9774 48.9142 48.6407 46.5031C49.4111 43.6979 50.9016 41.6162 52.5834 39.831C54.5223 37.7698 56.8828 36.123 59.2476 36.0203C61.2837 35.9328 63.1384 36.9375 64.995 37.8132C69.5992 39.9928 74.1318 42.3183 78.5895 44.9915C83.0471 47.6646 87.6679 50.5584 92.0932 53.6451C96.5184 56.7317 100.765 60.1269 105.022 63.5551C107.135 65.2561 109.245 66.967 111.37 68.6514C111.657 68.8812 112.055 68.9286 112.139 68.3197C112.223 67.7107 111.831 67.0285 111.517 66.7855C107.009 63.2066 102.546 59.5084 98.0015 56.019C93.4567 52.5296 88.9806 49.5424 84.3556 46.5958C79.7307 43.6491 75.0299 40.7955 70.2296 38.3227C68.0059 37.1779 65.7487 36.1523 63.4999 35.0969C61.5916 34.2016 59.6331 33.5249 57.5478 33.95C55.0941 34.4499 52.7314 36.3217 50.7721 38.6045C49.1834 40.452 47.8456 42.642 47.184 45.4267C45.9221 50.7379 46.9315 56.3867 48.4167 61.064C50.4592 67.5039 53.3977 73.0526 57.6744 76.6262C61.6868 79.9863 66.2977 82.0337 70.7573 84.0355C75.237 86.0472 79.7875 87.9295 83.973 90.9051C88.1672 93.8905 91.9684 97.9331 95.212 102.71C96.8956 105.19 98.469 107.899 99.7526 110.852C101.036 113.804 102.096 117.184 103.023 120.538C104.862 127.224 106.419 134.117 109.546 139.74C112.423 144.909 116.243 148.899 120.462 151.636C122.575 153.009 124.808 154.012 127.117 154.65C129.265 155.25 131.374 155.215 133.541 154.095C137.216 152.196 140.829 148.555 143.134 143.892C145.31 139.495 145.963 134.204 144.87 129.356C143.576 123.62 140.97 118.668 138.771 113.677C136.48 108.472 134.368 103.173 133.942 96.7801C133.718 93.468 133.748 90.0652 133.264 86.824C132.779 83.5828 131.788 80.9199 130.053 78.9059C128.318 76.892 126.22 75.4919 124.158 74.1378C122.097 72.7838 119.985 71.4565 117.798 70.3743C115.61 69.2921 113.492 68.312 111.511 66.7657C111.22 66.5392 110.826 66.4885 110.743 67.0974C110.661 67.6733 111.046 68.392 111.364 68.6316L111.382 68.6513Z" fill="white" fill-opacity="0.1"/>
<path d="M111.28 76.1808C112.376 77.3022 113.584 78.1387 114.816 78.9419C116.048 79.7451 117.2 80.6677 118.353 81.6698C119.45 82.616 120.628 83.5683 121.47 84.9722C122.311 86.3761 122.499 88.3657 122.624 90.2003C122.76 92.1868 122.816 94.197 123.112 96.143C123.388 97.9437 123.858 99.6638 124.374 101.327C125.433 104.741 126.829 107.917 127.773 111.41C128.554 114.293 128.684 117.152 127.455 120.056C126.225 122.96 123.998 125.287 121.804 126.354C119.249 127.595 116.325 126.144 114.057 124.791C111.657 123.363 109.427 121.362 107.777 118.491C105.992 115.379 104.869 111.556 103.536 108.009C102.202 104.462 100.483 100.953 98.4879 97.9255C96.4926 94.8979 94.3976 92.347 92.0418 90.0985C89.686 87.8499 87.2942 86.177 84.8302 84.435C82.3663 82.6931 79.7968 80.9054 77.5174 78.6432C75.238 76.381 73.4341 73.2432 72.373 69.3373C71.575 66.3955 70.9837 62.9499 71.7154 59.6853C72.4953 56.1956 75.3181 53.2995 77.7783 53.0342C78.9634 52.9052 80.0625 53.4347 81.1507 53.908C82.4968 54.4956 83.8401 55.0932 85.1602 55.7868C87.9844 57.2523 90.7292 58.9728 93.4458 60.753C98.5217 64.0774 103.27 68.0782 107.823 72.6224C108.989 73.7831 110.139 74.9704 111.282 76.1709C111.568 76.4735 112.04 76.6924 112.294 76.1156C112.53 75.5753 112.245 74.77 111.956 74.4707C107.146 69.4287 102.19 64.5924 96.816 60.7671C91.4421 56.9418 85.8792 53.5441 80.0668 51.2225C78.86 50.7366 77.6284 50.5154 76.3439 50.9293C74.8239 51.4207 73.3658 52.6822 72.1858 54.2034C70.3087 56.6279 69.7154 60.1463 69.9266 63.4916C70.174 67.4814 71.2837 71.3771 72.7833 74.5927C74.4566 78.181 76.9226 80.6075 79.5002 82.7324C82.0778 84.8573 84.6906 86.5588 87.2905 88.4686C89.8904 90.3785 92.4991 92.7049 94.7861 95.4961C97.0904 98.3071 99.2267 101.539 100.868 105.213C102.51 108.888 103.647 112.78 105.181 116.442C108.107 123.419 113.403 127.969 119.145 129.008C121.858 129.499 124.456 127.877 126.623 125.249C128.333 123.173 129.669 120.298 129.886 117.139C130.144 113.401 128.876 109.959 127.778 106.837C126.533 103.299 125.051 99.7761 124.506 95.788C123.96 91.7998 124.409 87.2902 122.61 83.9737C121.744 82.3715 120.504 81.2311 119.312 80.1763C118.12 79.1216 116.899 78.0637 115.605 77.208C114.312 76.3522 113.072 75.6185 111.956 74.4707C111.668 74.1781 111.198 73.9492 110.944 74.5261C110.706 75.0598 110.993 75.8716 111.282 76.1709L111.28 76.1808Z" fill="white" fill-opacity="0.1"/>
<path d="M109.71 101.448C108.594 101.656 107.487 101.507 106.472 100.951C105.457 100.394 104.594 99.4205 103.775 98.4629C102.015 96.4028 100.507 93.9511 99.0782 91.4196C96.4036 86.6829 93.3392 80.3611 94.4635 73.5594C94.6466 72.4341 95.0146 71.235 95.6996 70.5235C96.5174 69.6789 97.5424 69.8616 98.3956 70.2206C100.299 71.0233 102.113 72.5275 103.826 73.8868C107.284 76.6384 110.489 80.3734 112.12 85.698C112.986 88.5204 113.501 91.8044 113.341 95.0029C113.272 96.455 113.1 98.0432 112.448 99.2737C111.736 100.61 110.627 101.228 109.541 101.479C109.1 101.581 109.249 102.529 109.368 102.852C109.559 103.38 109.94 103.792 110.381 103.69C111.441 103.449 112.517 102.838 113.309 101.693C114.101 100.547 114.481 99.077 114.659 97.5483C115.038 94.3155 114.693 90.9842 114.045 87.9853C112.632 81.4393 109.28 76.4915 105.324 73.012C103.427 71.3429 101.392 69.8267 99.3236 68.6049C97.4577 67.5044 94.9885 66.9066 93.6612 70.0224C92.4692 72.82 92.6634 76.592 93.1294 79.4794C93.7652 83.4043 95.1972 86.9146 96.814 90.0799C98.546 93.4595 100.478 96.7388 102.687 99.4809C104.897 102.223 107.186 104.287 110.204 103.734C111.185 103.556 110.415 101.329 109.696 101.458L109.71 101.448Z" fill="white" fill-opacity="0.1"/>
</g>
</svg>
